<?xml version="1.0" encoding="UTF-8"?>
<svg id="_レイヤー_1" data-name=" レイヤー 1" xmlns="http://www.w3.org/2000/svg" viewBox="0 0 209.44 54.46">
  <defs>
    <style>
      .cls-1 {
        font-family: HiraMinPro-W3-83pv-RKSJ-H, 'Hiragino Mincho Pro';
        font-size: 9.88px;
      }

      .cls-1, .cls-2 {
        isolation: isolate;
      }

      .cls-1, .cls-3 {
        fill: #fff;
      }
    </style>
  </defs>
  <g class="cls-2">
    <g class="cls-2">
      <path class="cls-3" d="M0,30.92c0-3.56,3.43-5.59,9.49-5.59,3.81,0,7.5.68,9.62,1.86l-.3.68c-2.46-1.23-5.63-1.86-9.32-1.86-4.96,0-8.73,1.48-8.73,4.91,0,3.01,2.88,4.28,9.87,4.28s10.93-1.27,13.98-5.25l6.23-8.18c-13.77-.47-19.15-2.29-19.15-7.16,0-4.28,3.52-6.61,8.64-6.61,4.49,0,6.99,1.52,8.26,3.64l-.34.38c-1.31-.97-4.79-1.44-7.96-1.44-5.46,0-7.84,1.36-7.84,4.11,0,4.32,5.51,5.97,18.89,6.4l8.51-11.18c4.79-6.31,6.69-6.86,9.32-6.86,4.11,0,6.01,1.91,6.01,6.18v11.73c2.33-.08,4.62-.17,6.82-.25.17,1.61.25,3.01.25,4.53,0,8.68-1.61,12.37-5.34,12.37-3.05,0-4.66-1.82-4.66-5.34v-10.5c-4.11.08-8.43.13-12.37.13-2.96,0-5.68-.04-8.09-.08l-6.57,8.6c-3.81,5-7.75,7.37-14.61,7.37S0,35.5,0,30.92ZM32.32,19.36c2.29.04,4.83.08,7.58.08,3.81,0,8.09-.08,12.37-.17V5.76c0-2.84-1.1-3.81-3.09-3.81-2.33,0-4.02.51-8.68,6.65l-8.18,10.76ZM57.23,35.16c2.88,0,4.28-3.81,4.28-11.69,0-.85-.04-2.54-.21-3.81-1.86.08-3.94.17-6.1.25v11.94c0,2.2.47,3.3,2.03,3.3Z"/>
      <path class="cls-3" d="M67.94,24.95c0-6.9,3.39-11.1,8.94-11.1,4.66,0,7.54,2.71,7.54,7.07,0,2.63-.64,2.67-3.22,2.67h-10.46c-.04.42-.04.89-.04,1.36,0,6.95,1.82,10.46,6.61,10.46,3.94,0,5.72-2.54,6.44-5.59l.59.13c-.76,3.35-2.8,6.01-7.03,6.01-6.35,0-9.36-3.56-9.36-11.01ZM70.73,23.04h8.98c1.65,0,1.99-.59,1.99-2.16,0-4.19-1.27-6.48-4.83-6.48-3.85,0-5.76,3.22-6.14,8.64Z"/>
      <path class="cls-3" d="M91.31,30.29V5.85l2.71-2.12v27.02c0,2.71.42,4.45,2.33,4.45,4.11,0,5.97-3.39,5.97-7.62,0-4.91-2.2-8.77-7.29-13.26h9.19v.55h-7.79c4.49,4.11,6.48,7.79,6.48,12.71s-2.25,8.18-6.73,8.18c-2.5,0-4.87-1.36-4.87-5.46Z"/>
      <path class="cls-3" d="M109.91,5.93c0-4.74-.68-5.34-2.96-5.34-.59,0-1.65.08-2.5.25l-.08-.55c.85-.17,2.25-.3,3.05-.3,3.9,0,5.21,1.23,5.21,5.55v13.05c.97-3.3,3.64-4.74,6.4-4.74,4.83,0,7.37,2.29,7.37,7.16v14.49h-2.71v-14.19c0-5.34-1.1-6.9-4.62-6.9-3.05,0-6.44,2.08-6.44,8.01v13.09h-2.71V5.93Z"/>
      <path class="cls-3" d="M133.16,24.95c0-6.9,3.39-11.1,8.94-11.1,4.66,0,7.54,2.71,7.54,7.07,0,2.63-.64,2.67-3.22,2.67h-10.46c-.04.42-.04.89-.04,1.36,0,6.95,1.82,10.46,6.61,10.46,3.94,0,5.72-2.54,6.44-5.59l.59.13c-.76,3.35-2.8,6.01-7.03,6.01-6.35,0-9.36-3.56-9.36-11.01ZM135.95,23.04h8.98c1.65,0,1.99-.59,1.99-2.16,0-4.19-1.27-6.48-4.83-6.48-3.85,0-5.76,3.22-6.14,8.64Z"/>
      <path class="cls-3" d="M157.89,14.83c-3.9-.34-6.01-1.91-6.01-4.36,0-1.95,1.19-3.18,3.05-3.18,2.5,0,3.77,1.91,3.77,5.29,0,.55-.04,1.1-.13,1.69.3.04.59.04.93.04h5.38v15.97c0,3.09.25,4.87,2.2,4.87,2.84,0,4.07-3.81,4.07-9.78,0-3.85-.47-7.71-1.23-10.93l.59-.13c.76,3.18,1.23,6.9,1.23,11.06,0,6.57-1.31,10.38-4.87,10.38-2.96,0-4.7-1.36-4.7-5.46v-15.42h-2.71c-.34,0-.68,0-.97-.04-.34,2.12-1.14,4.53-2.25,6.99l-.59-.21c1.06-2.33,1.86-4.74,2.24-6.78ZM157.98,14.27c.08-.64.13-1.19.13-1.69,0-3.01-1.1-4.74-3.18-4.74-1.57,0-2.46.97-2.46,2.63,0,2.12,1.91,3.52,5.51,3.81Z"/>
      <path class="cls-3" d="M177.8,8.09c0-1.14.8-1.95,1.99-1.95s1.95.81,1.95,1.95-.8,1.99-1.95,1.99-1.99-.8-1.99-1.99ZM178.43,30.29v-15.97h2.71v15.97c0,3.09.25,4.87,2.2,4.87,2.84,0,4.07-3.81,4.07-9.78,0-3.85-.47-7.71-1.23-10.93l.59-.13c.76,3.18,1.23,6.9,1.23,11.06,0,6.57-1.31,10.38-4.87,10.38-2.97,0-4.7-1.36-4.7-5.46Z"/>
      <path class="cls-3" d="M198.81,35.79c-3.52-.55-5.8-2.25-5.8-4.79,0-1.86,1.14-3.05,2.96-3.05,2.42,0,3.64,1.78,3.64,5.25,0,.72-.04,1.44-.13,2.12.59.04,1.23.08,1.86.08,3.85,0,5.59-1.99,5.59-4.62s-1.53-3.85-5.63-5.17c-5.72-1.78-7.62-3.47-7.62-6.4,0-3.35,2.88-5.34,7.79-5.34,2.75,0,5.68.64,7.5,1.91l-.34.51c-1.65-1.19-4.32-1.86-7.16-1.86-3.43,0-5.29,1.44-5.29,4.11,0,2.2,1.48,3.22,6.02,4.7,5.25,1.65,7.24,3.52,7.24,6.74,0,3.69-3.09,5.97-8.09,5.97-.68,0-1.31-.04-1.95-.08-.25,1.86-.8,3.56-1.61,5.34l-.59-.21c.76-1.74,1.36-3.43,1.61-5.21ZM198.89,35.24c.08-.68.13-1.36.13-2.03,0-3.09-1.06-4.7-3.05-4.7-1.52,0-2.37.93-2.37,2.5,0,2.24,2.08,3.73,5.29,4.24Z"/>
    </g>
  </g>
  <g class="cls-2">
    <g class="cls-2">
      <text class="cls-1" transform="translate(130.59 51.52)"><tspan x="0" y="0">Fictitious Artists</tspan></text>
    </g>
  </g>
</svg>